<svg width="48" height="48" viewBox="0 0 48 48" fill="none" xmlns="http://www.w3.org/2000/svg">
<path d="M24.0001 28C28.4121 28 32.0001 24.412 32.0001 20C32.0001 15.588 28.4121 12 24.0001 12C19.5881 12 16.0001 15.588 16.0001 20C16.0001 24.412 19.5881 28 24.0001 28ZM24.0001 16C26.2061 16 28.0001 17.794 28.0001 20C28.0001 22.206 26.2061 24 24.0001 24C21.7941 24 20.0001 22.206 20.0001 20C20.0001 17.794 21.7941 16 24.0001 16ZM22.8402 43.628C23.1787 43.8697 23.5842 43.9997 24.0002 43.9997C24.4161 43.9997 24.8217 43.8697 25.1602 43.628C25.7682 43.198 40.0582 32.88 40.0002 20C40.0002 11.178 32.8222 4 24.0002 4C15.1782 4 8.00018 11.178 8.00018 19.99C7.94218 32.88 22.2322 43.198 22.8402 43.628ZM24.0002 8C30.6182 8 36.0002 13.382 36.0002 20.01C36.0422 28.886 27.2242 36.856 24.0002 39.47C20.7782 36.854 11.9582 28.882 12.0002 20C12.0002 13.382 17.3822 8 24.0002 8Z" fill="#00ADDC"/>
<path d="M24.0001 28C28.4121 28 32.0001 24.412 32.0001 20C32.0001 15.588 28.4121 12 24.0001 12C19.5881 12 16.0001 15.588 16.0001 20C16.0001 24.412 19.5881 28 24.0001 28ZM24.0001 16C26.2061 16 28.0001 17.794 28.0001 20C28.0001 22.206 26.2061 24 24.0001 24C21.7941 24 20.0001 22.206 20.0001 20C20.0001 17.794 21.7941 16 24.0001 16ZM22.8402 43.628C23.1787 43.8697 23.5842 43.9997 24.0002 43.9997C24.4161 43.9997 24.8217 43.8697 25.1602 43.628C25.7682 43.198 40.0582 32.88 40.0002 20C40.0002 11.178 32.8222 4 24.0002 4C15.1782 4 8.00018 11.178 8.00018 19.99C7.94218 32.88 22.2322 43.198 22.8402 43.628ZM24.0002 8C30.6182 8 36.0002 13.382 36.0002 20.01C36.0422 28.886 27.2242 36.856 24.0002 39.47C20.7782 36.854 11.9582 28.882 12.0002 20C12.0002 13.382 17.3822 8 24.0002 8Z" fill="#00ADDC"/>
</svg>
