<svg width="65" height="54" viewBox="0 0 65 54" fill="none" xmlns="http://www.w3.org/2000/svg">
<path opacity="0.16" d="M10.833 40.5C10.833 38.1131 11.9744 35.8239 14.006 34.136C16.0377 32.4482 18.7932 31.5 21.6663 31.5H43.333C46.2062 31.5 48.9617 32.4482 50.9933 34.136C53.025 35.8239 54.1663 38.1131 54.1663 40.5C54.1663 41.6935 53.5957 42.8381 52.5798 43.682C51.564 44.5259 50.1863 45 48.7497 45H16.2497C14.8131 45 13.4353 44.5259 12.4195 43.682C11.4037 42.8381 10.833 41.6935 10.833 40.5Z" fill="#11CF73"/>
<path d="M10.833 40.5C10.833 38.1131 11.9744 35.8239 14.006 34.136C16.0377 32.4482 18.7932 31.5 21.6663 31.5H43.333C46.2062 31.5 48.9617 32.4482 50.9933 34.136C53.025 35.8239 54.1663 38.1131 54.1663 40.5C54.1663 41.6935 53.5957 42.8381 52.5798 43.682C51.564 44.5259 50.1863 45 48.7497 45H16.2497C14.8131 45 13.4353 44.5259 12.4195 43.682C11.4037 42.8381 10.833 41.6935 10.833 40.5Z" stroke="#11CF73" stroke-width="2.16667" stroke-linejoin="round"/>
<path d="M32.5 22.5C36.9873 22.5 40.625 19.4779 40.625 15.75C40.625 12.0221 36.9873 9 32.5 9C28.0127 9 24.375 12.0221 24.375 15.75C24.375 19.4779 28.0127 22.5 32.5 22.5Z" stroke="#11CF73" stroke-width="2.16667"/>
</svg>
