<svg width="24" height="25" viewBox="0 0 24 25" fill="none" xmlns="http://www.w3.org/2000/svg">
<path fill-rule="evenodd" clip-rule="evenodd" d="M4.5 3.63159C3.67157 3.63159 3 4.30316 3 5.13159V20.1316C3 20.96 3.67157 21.6316 4.5 21.6316H19.5C20.3284 21.6316 21 20.96 21 20.1316V5.13159C21 4.30316 20.3284 3.63159 19.5 3.63159H4.5ZM8.52076 7.63431C8.52639 8.59056 7.81061 9.17978 6.96123 9.17556C6.16107 9.17134 5.46357 8.53431 5.46779 7.63572C5.47201 6.79056 6.13998 6.11134 7.00764 6.13103C7.88795 6.15072 8.52639 6.79619 8.52076 7.63431ZM12.2797 10.3934H9.75971H9.7583V18.9532H12.4217V18.7535C12.4217 18.3736 12.4214 17.9936 12.4211 17.6135C12.4203 16.5997 12.4194 15.5848 12.4246 14.5713C12.426 14.3252 12.4372 14.0693 12.5005 13.8344C12.7381 12.9569 13.5271 12.3902 14.4074 12.5295C14.9727 12.618 15.3467 12.9457 15.5042 13.4787C15.6013 13.8119 15.6449 14.1705 15.6491 14.5179C15.6605 15.5655 15.6589 16.6131 15.6573 17.6608C15.6567 18.0306 15.6561 18.4006 15.6561 18.7704V18.9518H18.328V18.7465C18.328 18.2945 18.3278 17.8426 18.3275 17.3907C18.327 16.2612 18.3264 15.1317 18.3294 14.0018C18.3308 13.4913 18.276 12.9879 18.1508 12.4943C17.9638 11.7602 17.5771 11.1527 16.9485 10.714C16.5027 10.4018 16.0133 10.2007 15.4663 10.1782C15.404 10.1756 15.3412 10.1722 15.2781 10.1688C14.9984 10.1537 14.7141 10.1383 14.4467 10.1923C13.6817 10.3455 13.0096 10.6957 12.5019 11.313C12.4429 11.3838 12.3852 11.4557 12.2991 11.563L12.2797 11.5873V10.3934ZM5.68164 18.956H8.33242V10.3989H5.68164V18.956Z" fill="#00ADDC"/>
</svg>
