<svg width="26" height="25" viewBox="0 0 26 25" fill="none" xmlns="http://www.w3.org/2000/svg">
<path d="M20.1268 13.5393C19.9998 13.417 19.8491 13.32 19.6831 13.2538C19.5171 13.1877 19.3392 13.1536 19.1596 13.1536C18.9799 13.1536 18.802 13.1877 18.636 13.2538C18.4701 13.32 18.3193 13.417 18.1924 13.5393L16.0117 15.636C15.0008 15.3466 13.1142 14.6889 11.9186 13.5393C10.7229 12.3896 10.0389 10.5758 9.73794 9.60371L11.9186 7.50702C12.0457 7.38498 12.1466 7.24002 12.2154 7.08045C12.2843 6.92087 12.3197 6.74982 12.3197 6.57707C12.3197 6.40431 12.2843 6.23326 12.2154 6.07369C12.1466 5.91411 12.0457 5.76916 11.9186 5.64711L6.44646 0.385665C6.31952 0.263408 6.16876 0.166416 6.0028 0.100239C5.83683 0.0340627 5.65893 0 5.47926 0C5.29959 0 5.12169 0.0340627 4.95572 0.100239C4.78976 0.166416 4.639 0.263408 4.51206 0.385665L0.801963 3.95292C0.282111 4.45276 -0.010648 5.13938 0.00029624 5.84046C0.031761 7.71354 0.547509 14.2193 5.88009 19.3466C11.2127 24.4739 17.979 24.9684 19.9284 25H19.9667C20.689 25 21.3717 24.7264 21.8888 24.2292L25.5989 20.6619C25.726 20.5399 25.8269 20.3949 25.8957 20.2354C25.9646 20.0758 26 19.9047 26 19.732C26 19.5592 25.9646 19.3882 25.8957 19.2286C25.8269 19.069 25.726 18.9241 25.5989 18.802L20.1268 13.5393ZM19.953 22.368C18.2457 22.3403 12.4042 21.8997 7.81449 17.4853C3.2097 13.0578 2.76372 7.42153 2.73636 5.81284L5.47926 3.17554L9.01699 6.57707L7.24813 8.27783C7.08733 8.43232 6.9691 8.62289 6.90414 8.83234C6.83917 9.04179 6.82951 9.2635 6.87602 9.47744C6.90885 9.6287 7.71189 13.2157 9.98282 15.3992C12.2537 17.5827 15.9844 18.3548 16.1417 18.3864C16.3641 18.4324 16.5949 18.4238 16.8129 18.3615C17.0309 18.2992 17.2292 18.1852 17.3893 18.0299L19.1596 16.3291L22.6973 19.7307L19.953 22.368Z" fill="#00ADDC"/>
</svg>
