<svg width="24" height="25" viewBox="0 0 24 25" fill="none" xmlns="http://www.w3.org/2000/svg">
<path fill-rule="evenodd" clip-rule="evenodd" d="M16 3.63159H8C5.23858 3.63159 3 5.87017 3 8.63159V16.6316C3 19.393 5.23858 21.6316 8 21.6316H16C18.7614 21.6316 21 19.393 21 16.6316V8.63159C21 5.87017 18.7614 3.63159 16 3.63159ZM19.25 16.6316C19.2445 18.4242 17.7926 19.8761 16 19.8816H8C6.20735 19.8761 4.75549 18.4242 4.75 16.6316V8.63159C4.75549 6.83894 6.20735 5.38708 8 5.38159H16C17.7926 5.38708 19.2445 6.83894 19.25 8.63159V16.6316ZM16.75 8.88159C17.3023 8.88159 17.75 8.43387 17.75 7.88159C17.75 7.32931 17.3023 6.88159 16.75 6.88159C16.1977 6.88159 15.75 7.32931 15.75 7.88159C15.75 8.43387 16.1977 8.88159 16.75 8.88159ZM12 8.13159C9.51472 8.13159 7.5 10.1463 7.5 12.6316C7.5 15.1169 9.51472 17.1316 12 17.1316C14.4853 17.1316 16.5 15.1169 16.5 12.6316C16.5027 11.4373 16.0294 10.2912 15.1849 9.44667C14.3404 8.60218 13.1943 8.12893 12 8.13159ZM9.25 12.6316C9.25 14.1504 10.4812 15.3816 12 15.3816C13.5188 15.3816 14.75 14.1504 14.75 12.6316C14.75 11.1128 13.5188 9.88159 12 9.88159C10.4812 9.88159 9.25 11.1128 9.25 12.6316Z" fill="#00ADDC"/>
</svg>
