<svg width="24" height="25" viewBox="0 0 24 25" fill="none" xmlns="http://www.w3.org/2000/svg">
<path d="M21.593 7.59192C21.4791 7.16933 21.2565 6.78393 20.9473 6.47409C20.6382 6.16425 20.2533 5.94078 19.831 5.82592C18.265 5.39592 12 5.38892 12 5.38892C12 5.38892 5.73596 5.38192 4.16896 5.79292C3.74689 5.91307 3.36279 6.1397 3.05353 6.45106C2.74427 6.76242 2.52025 7.14804 2.40296 7.57092C1.98996 9.13692 1.98596 12.3849 1.98596 12.3849C1.98596 12.3849 1.98196 15.6489 2.39196 17.1989C2.62196 18.0559 3.29696 18.7329 4.15496 18.9639C5.73696 19.3939 11.985 19.4009 11.985 19.4009C11.985 19.4009 18.25 19.4079 19.816 18.9979C20.2385 18.8833 20.6237 18.6603 20.9336 18.3511C21.2435 18.0419 21.4673 17.6572 21.583 17.2349C21.997 15.6699 22 12.4229 22 12.4229C22 12.4229 22.02 9.15792 21.593 7.59192ZM9.99596 15.3939L10.001 9.39392L15.208 12.3989L9.99596 15.3939Z" fill="#00ADDC"/>
</svg>
