<svg width="48" height="48" viewBox="0 0 48 48" fill="none" xmlns="http://www.w3.org/2000/svg">
<path d="M40 4H8C5.794 4 4 5.794 4 8V32C4 34.206 5.794 36 8 36H14V43.534L26.554 36H40C42.206 36 44 34.206 44 32V8C44 5.794 42.206 4 40 4ZM40 32H25.446L18 36.466V32H8V8H40V32ZM14 14H34V18H14V14ZM14 22H28V26H14V22Z" fill="#00ADDC"/>
<path d="M40 4H8C5.794 4 4 5.794 4 8V32C4 34.206 5.794 36 8 36H14V43.534L26.554 36H40C42.206 36 44 34.206 44 32V8C44 5.794 42.206 4 40 4ZM40 32H25.446L18 36.466V32H8V8H40V32ZM14 14H34V18H14V14ZM14 22H28V26H14V22Z" fill="#00ADDC"/>
</svg>
