<?xml version="1.0" encoding="UTF-8"?>
<svg xmlns="http://www.w3.org/2000/svg" version="1.1" viewBox="0 0 20 19">
  <defs>
    <style>
      .cls-1 {
        fill: #db9e00;
      }
    </style>
  </defs>
  <!-- Generator: Adobe Illustrator 28.6.0, SVG Export Plug-In . SVG Version: 1.2.0 Build 709)  -->
  <g>
    <g id="Calque_1">
      <path class="cls-1" d="M9.1.6c.3-.8,1.5-.8,1.9,0l2,4.8c.1.3.5.6.8.6l5.3.4c.9,0,1.3,1.2.6,1.7l-4,3.4c-.3.2-.4.6-.3,1l1.2,5.1c.2.9-.7,1.5-1.5,1.1l-4.5-2.7c-.3-.2-.7-.2-1,0l-4.5,2.7c-.8.5-1.7-.2-1.5-1.1l1.2-5.1c0-.4,0-.7-.3-1L.4,8.2c-.7-.6-.3-1.7.6-1.7l5.3-.4c.4,0,.7-.3.8-.6L9.1.6Z"/>
    </g>
  </g>
</svg>